<?xml version="1.0" standalone="no"?><!DOCTYPE svg PUBLIC "-//W3C//DTD SVG 1.1//EN" "http://www.w3.org/Graphics/SVG/1.1/DTD/svg11.dtd"><svg t="1609383239012" class="icon" viewBox="0 0 1024 1024" version="1.1" xmlns="http://www.w3.org/2000/svg" p-id="2514" width="16" height="16" xmlns:xlink="http://www.w3.org/1999/xlink"><defs><style type="text/css"></style></defs><path d="M489.5 615.2c-9.9 0-19.2-3.1-27.1-9l-336-217.6-0.3-0.3-2.1-2.1c-15.2-16.3-14.2-42 2.1-57.1l0.4-0.4 338-201.1c7.9-5.6 17.3-8.6 27-8.6s19.1 3 27 8.6l332.7 205.9 0.4 0.3 2.1 2.1c15.2 16.3 14.2 42-2.1 57.1l-0.3 0.3-334.6 212.8c-7.9 5.9-17.3 9.1-27.2 9.1z m2-74l281.8-181.7-281.8-170.9-281.8 170.9 281.8 181.7z" fill="#000000" p-id="2515"></path><path d="M487 905c-6.6-0.2-13-2.1-18.5-5.6L109.3 672.3c-8.1-5-13.9-13.3-15.8-22.6-1.8-9.2 0.3-18.7 5.7-26.3 7.2-9.7 18.6-15.4 30.6-15.4 7.2 0 14.2 2 20.3 5.9L490 828.6l340.4-214.7 0.2-0.2c6.3-4.2 13.6-6.5 21.2-6.5 12.7 0 24.4 6.2 31.5 16.7 5.4 7.5 7.5 17.1 5.7 26.2-2 9.4-7.7 17.6-15.9 22.7L513.4 899.9c-5.1 3-10.9 4.7-16.8 5h-0.1l-9.5 0.1z" fill="#000000" p-id="2516"></path><path d="M484.6 759.5c-5.4 0-10.8-1.2-15.6-3.5l-0.3-0.1-358.3-227.2c-8.6-5-14.8-13.4-16.9-23.1-1.8-9.2 0.3-18.7 5.7-26.3l0.1-0.1c7.3-9.6 18.5-15.2 30.6-15.2 7.1 0 14.1 2 20.1 5.7l340 214.8 342.9-216.2c6.1-3.8 13.1-5.9 20.3-5.9 12 0 23.4 5.8 30.6 15.4 5.5 7.6 7.6 17.2 5.7 26.3-1.8 9.5-7.6 18-15.8 23.2L514 754.3h-0.1c-5.1 3-10.9 4.7-16.8 5H487.3c-0.9 0.2-1.8 0.2-2.7 0.2z" fill="#000000" p-id="2517"></path></svg>